<svg width="200" height="200" viewBox="0 0 200 200" fill="none" xmlns="http://www.w3.org/2000/svg">
<circle cx="100" cy="89.5" r="87.5" fill="#091D14" stroke="#24E689" stroke-width="4"/>
<path fill-rule="evenodd" clip-rule="evenodd" d="M75.4139 36.9203C74.531 37.0409 73.4673 37.3758 72.4813 37.8439C71.5977 38.2632 71.2294 38.5398 70.2292 39.5351C68.027 41.7265 67.108 43.9388 67.2673 46.6657C67.4161 49.2123 68.3212 51.2709 70.2484 53.446L70.6786 53.9315L69.8132 54.9909C66.8968 58.5613 64.7006 63.0392 64.0197 66.8028C63.7278 68.4172 63.7241 71.4606 64.0126 72.8587C64.4951 75.1973 65.4386 77.3581 66.8087 79.2621C68.243 81.2554 70.9428 83.658 73.4425 85.1658C73.9408 85.4664 74.349 85.7423 74.3495 85.779C74.3501 85.8157 73.927 86.4792 73.4093 87.2535C72.2998 88.9131 70.8323 91.7604 70.1906 93.4985C69.4105 95.6115 69.0413 97.0395 68.656 99.4323L68.596 99.8046L67.7337 98.9858C67.2595 98.5356 66.5344 97.9648 66.1225 97.7175C62.2724 95.407 56.9997 96.2641 54.4423 99.6162C52.6862 101.918 52.203 105.213 52.9742 109.627C53.614 113.288 55.1919 116.318 57.9397 119.159C59.3055 120.572 60.3083 121.403 62.0714 122.585L63.355 123.445L62.6917 123.66C61.2186 124.136 60.0377 124.868 58.8987 126.01C58.1131 126.798 56.9968 128.365 57.1287 128.495C57.1702 128.536 59.0215 128.227 61.2426 127.809C63.4638 127.39 65.3196 127.049 65.3668 127.051C65.4139 127.052 65.2347 127.513 64.9686 128.074C64.3754 129.324 63.9019 130.899 63.6025 132.615C63.4781 133.329 63.3843 133.924 63.3941 133.937C63.4162 133.967 64.3968 133.475 74.3337 128.452C78.6933 126.248 82.273 124.462 82.2882 124.483C82.3036 124.503 82.4925 124.778 82.7079 125.093L83.0995 125.665L82.2357 126.546C80.7143 128.098 79.7478 129.938 79.2494 132.232L78.9971 133.394L79.7699 132.639C80.6667 131.763 81.5513 131.318 82.1677 131.433C82.9656 131.58 84.0278 132.989 85.2543 135.526L85.8949 136.85L86.3112 135.593C86.8204 134.056 87.6378 132.472 88.1354 132.058C88.3736 131.86 88.6598 131.75 88.9375 131.75C89.7361 131.75 91.4341 132.782 93.082 134.27L93.7821 134.902L93.7042 133.727C93.5696 131.699 92.7671 129.737 91.4042 128.105L90.7008 127.262L91.1261 127.349C94.4722 128.029 99.067 128.119 102.47 127.57L103.881 127.343L103.524 127.724C102.842 128.45 102.366 129.138 101.88 130.101C101.253 131.346 101.006 132.269 100.911 133.727L100.835 134.902L101.51 134.275C103.036 132.858 104.875 131.75 105.7 131.75C106.057 131.75 106.245 131.841 106.55 132.161C107.117 132.755 107.734 133.963 108.263 135.52L108.726 136.879L108.949 136.323C109.917 133.919 111.591 131.591 112.469 131.428C113.066 131.317 114.073 131.843 114.882 132.689L115.543 133.379L115.458 132.843C115.068 130.368 113.968 128.157 112.291 126.475L111.491 125.674L111.886 125.066C112.103 124.732 112.338 124.458 112.409 124.458C112.479 124.458 113.501 124.951 114.679 125.554C115.857 126.157 118.313 127.404 120.136 128.325C127.564 132.077 131.327 133.975 131.34 133.975C131.347 133.975 131.309 133.655 131.254 133.264C130.988 131.353 130.345 129.169 129.645 127.798C129.436 127.389 129.323 127.054 129.395 127.054C129.467 127.054 131.328 127.394 133.53 127.81C135.733 128.226 137.567 128.536 137.604 128.499C137.733 128.372 136.541 126.7 135.799 125.967C134.668 124.849 133.496 124.129 132.045 123.66L131.382 123.445L132.665 122.585C134.429 121.403 135.431 120.572 136.797 119.159C140.051 115.794 141.603 112.329 142.047 107.436C142.273 104.946 141.967 102.723 141.166 101.038C139.887 98.3465 137.276 96.6733 133.996 96.4434C131.33 96.2564 128.966 97.1222 126.972 99.0152C126.481 99.4818 126.065 99.8634 126.047 99.8634C126.03 99.8634 126.016 99.7175 126.016 99.5391C126.016 98.8898 125.388 96.1769 124.903 94.7267C123.973 91.949 122.467 88.9679 120.798 86.5978C120.422 86.0652 120.134 85.6161 120.157 85.5996C120.18 85.5832 120.761 85.2081 121.45 84.7661C126.279 81.6634 129.175 77.7918 130.222 73.0392C130.536 71.6101 130.542 68.2577 130.233 66.6792C129.501 62.9503 127.286 58.4337 124.551 55.0948C124.146 54.6007 123.772 54.1266 123.719 54.0412C123.658 53.943 123.851 53.6247 124.242 53.1761C126.269 50.8522 127.143 48.4302 126.988 45.5627C126.815 42.3552 124.613 39.1591 121.61 37.7578C120.124 37.0647 119.3 36.8992 117.384 36.9098C115.322 36.9211 114.268 37.1666 112.422 38.0657C111.434 38.5468 110.92 38.8986 110.117 39.6431C108.891 40.7783 107.79 42.3797 107.299 43.7403C107.113 44.2571 106.918 44.728 106.866 44.7868C106.814 44.8457 106.218 44.7522 105.542 44.5792C100.504 43.2909 95.3251 43.1599 90.3467 44.195C89.5466 44.3613 88.6178 44.5796 88.2826 44.6801C87.9476 44.7804 87.6076 44.8632 87.527 44.864C87.4466 44.8647 87.2849 44.5733 87.1675 44.2165C86.8553 43.2663 86.0737 41.831 85.3541 40.8861C83.4684 38.4103 80.004 36.79 76.7274 36.8513C76.2114 36.8611 75.6203 36.892 75.4139 36.9203ZM75.2263 37.5347C74.5489 37.6456 73.2453 38.1108 72.4323 38.5318C70.7274 39.4147 68.9903 41.5124 68.2624 43.5676C67.9472 44.4578 67.9126 44.7165 67.9155 46.163C67.9179 47.2912 67.9837 48.009 68.1366 48.5731C68.5686 50.1665 69.4817 51.7333 70.795 53.1347L71.4939 53.8807L70.4163 55.2095C68.8925 57.0886 67.8027 58.7475 66.778 60.7468C64.2773 65.6268 63.7129 70.2835 65.0992 74.598C67.1908 81.1081 73.9159 86.1656 84.4771 89.1711C89.0756 90.4796 93.7096 91.2319 97.1808 91.2333C103.076 91.2356 112.263 88.958 117.938 86.0878C124.413 82.8127 128.037 78.8832 129.487 73.5658C129.785 72.4709 129.815 72.1507 129.823 69.9543C129.83 67.8654 129.792 67.374 129.541 66.2659C128.649 62.3314 126.444 58.1735 123.352 54.597L122.736 53.8854L123.519 53.0593C125.526 50.9395 126.384 48.8766 126.389 46.1606C126.392 44.1883 125.843 42.6 124.585 40.9467C122.923 38.763 120.702 37.6042 117.94 37.4799C113.095 37.2615 109.031 40.1073 107.571 44.7417C107.453 45.1156 107.336 45.4886 107.31 45.5707C107.276 45.6782 107.011 45.6352 106.359 45.4162C104.568 44.8143 101.244 44.2594 98.2346 44.0598C95.5444 43.8814 90.0735 44.6321 87.5265 45.529L87.0044 45.7129L86.7327 44.8256C85.578 41.0539 82.7071 38.436 78.845 37.6334C78.0385 37.4658 75.9889 37.4098 75.2263 37.5347ZM76.2271 41.1697C73.5439 41.6874 71.614 44.4456 72.0754 47.1034C72.3801 48.8592 73.4661 50.2958 75.0734 51.0696C75.8677 51.452 75.991 51.4745 77.2964 51.476C78.6411 51.4775 78.7041 51.465 79.6221 51.0169C80.7755 50.454 81.5921 49.6322 82.146 48.477C82.5192 47.6988 82.5443 47.56 82.5429 46.2866C82.5414 45.0036 82.5184 44.8804 82.1316 44.0963C81.037 41.877 78.6621 40.6999 76.2271 41.1697ZM115.771 41.2216C113.106 41.961 111.407 44.5139 111.856 47.1034C112.16 48.8568 113.238 50.285 114.848 51.0684C115.647 51.4568 115.76 51.4775 117.074 51.4775C118.421 51.4775 118.485 51.4647 119.403 51.0169C122.41 49.5493 123.328 45.8376 121.343 43.1738C120.106 41.5127 117.726 40.679 115.771 41.2216ZM94.448 49.1699C94.0328 49.6231 94.3132 50.3342 94.9071 50.3342C95.356 50.3342 95.6171 50.0971 95.6171 49.6895C95.6171 49.0458 94.867 48.7125 94.448 49.1699ZM99.8272 49.1699C99.3967 49.6398 99.6662 50.3033 100.288 50.3033C100.782 50.3033 100.996 50.1151 100.996 49.6798C100.996 49.0448 100.243 48.7162 99.8272 49.1699ZM89.5017 49.4974C88.9254 49.6778 88.2017 50.2758 87.9277 50.7977C87.4745 51.6612 87.6209 53.5914 88.2858 55.5195C88.8482 57.1507 89.361 57.9635 90.6132 59.2091C92.4227 61.0089 94.2766 61.7612 97.2092 61.8856C99.1311 61.9671 100.353 61.8112 101.76 61.3047C105.349 60.0134 107.48 56.6588 107.356 52.4944C107.316 51.1334 107.295 51.0396 106.933 50.5298C105.816 48.9592 103.503 49.0117 102.543 50.6295C102.251 51.122 102.196 51.3848 102.121 52.6346C101.991 54.8136 101.484 55.7355 100.058 56.3839C99.5062 56.6348 99.2395 56.6683 97.7935 56.6683C96.1671 56.6683 96.1477 56.6649 95.2962 56.2357C93.8872 55.5254 93.1296 54.2559 92.9243 52.2607C92.8801 51.8299 92.7874 51.2953 92.7184 51.0727C92.3403 49.8501 90.7937 49.0928 89.5017 49.4974ZM89.3572 50.2172C88.985 50.4116 88.7175 50.676 88.5126 51.0514C88.2449 51.5421 88.22 51.7072 88.2814 52.5898C88.5237 56.0748 90.3712 59.0101 93.1772 60.3681C94.7232 61.1163 95.4036 61.2404 97.9313 61.2351C100.04 61.2308 100.248 61.2091 101.2 60.8952C104.34 59.8604 106.303 57.3587 106.753 53.8185C107.046 51.5175 106.597 50.4022 105.232 50.0418C104.73 49.9093 104.573 49.9181 104.073 50.1069C103.722 50.2393 103.361 50.497 103.158 50.7607C102.854 51.1548 102.813 51.3329 102.736 52.6345C102.628 54.438 102.33 55.2853 101.513 56.1116C100.636 56.9985 99.8163 57.2652 97.9313 57.277C96.8347 57.2838 96.2404 57.2282 95.7258 57.0708C93.7929 56.4796 92.6162 54.8614 92.3629 52.446C92.2122 51.0088 91.7738 50.3141 90.853 50.0532C90.2209 49.8741 89.9589 49.9028 89.3572 50.2172ZM89.9877 52.4727C89.9877 53.6218 90.682 55.6357 91.4635 56.7532C92.8251 58.7005 94.7167 59.6712 97.3684 59.783C99.1221 59.8571 100.289 59.6444 101.584 59.0145C103.697 57.9871 105.237 55.5518 105.464 52.8807C105.531 52.0875 105.52 52.0336 105.281 52.0336C104.99 52.0336 104.875 52.254 104.872 52.8162C104.866 54.1911 103.955 56.2693 102.898 57.3233C101.59 58.627 100.042 59.1968 97.8012 59.2C94.8129 59.2044 92.6823 57.9812 91.4914 55.5773C90.9827 54.5505 90.6132 53.3649 90.6132 52.7593C90.6132 52.2634 90.4901 52.0336 90.2245 52.0336C90.0366 52.0336 89.9877 52.1243 89.9877 52.4727ZM118.005 86.7029C113.479 88.9429 107.308 90.7425 101.434 91.535C99.2262 91.8328 95.0186 91.8362 92.8786 91.5418C87.036 90.738 81.3335 89.102 76.6156 86.8762C75.7629 86.4739 75.0223 86.1448 74.9696 86.1448C74.749 86.1448 73.0136 88.9398 72.0568 90.8359C69.7633 95.3815 68.7572 99.9239 69.1039 104.167C69.5215 109.277 71.412 113.388 75.5131 118.104C76.9112 119.712 79.6302 122.014 80.9651 122.72C81.3137 122.904 81.3473 122.994 80.4596 121.368C77.4459 115.851 75.5413 108.978 75.1655 102.266C75.0951 101.007 75.1119 100.75 75.2738 100.617C75.3793 100.531 75.5156 100.491 75.5768 100.528C75.6381 100.565 75.7263 101.348 75.773 102.266C76.1746 110.173 78.72 117.998 82.9475 124.322C83.9757 125.861 83.9759 125.861 83.6981 126.044C82.662 126.726 81.1909 128.622 80.5181 130.143C79.9478 131.433 79.9632 131.569 80.6367 131.188C81.2598 130.836 82.2889 130.78 82.8509 131.067C83.3743 131.334 84.2411 132.4 84.9654 133.666C85.3155 134.277 85.6465 134.853 85.701 134.945C85.7674 135.056 85.9354 134.785 86.2089 134.124C87.0953 131.982 87.998 131.046 89.0625 131.164C89.8033 131.246 90.9653 131.829 92.0936 132.683C92.5982 133.064 93.0317 133.357 93.0569 133.332C93.2052 133.185 92.6279 131.375 92.0796 130.267C91.5161 129.128 91.2963 128.831 90.2894 127.844L89.1415 126.718L88.4388 117.586C88.0522 112.563 87.7023 108.134 87.6612 107.743C87.5989 107.151 87.6211 107.02 87.7948 106.954C87.9092 106.911 88.0512 106.924 88.1101 106.984C88.1692 107.044 88.3135 108.345 88.431 109.874C88.5485 111.404 88.6535 112.667 88.6644 112.681C88.6753 112.695 89.2167 112.436 89.8676 112.106C93.9513 110.034 98.2577 109.63 102.246 110.943C103.223 111.265 104.935 112.073 105.538 112.497C105.731 112.633 105.905 112.724 105.923 112.7C105.942 112.675 106.053 111.405 106.171 109.876C106.289 108.347 106.435 107.047 106.497 106.986C106.558 106.925 106.7 106.91 106.813 106.953C106.973 107.014 107.002 107.141 106.947 107.556C106.909 107.845 106.56 112.281 106.17 117.413L105.462 126.745L104.55 127.583C103.53 128.52 102.637 129.761 102.174 130.886C101.853 131.667 101.445 133.223 101.538 133.315C101.567 133.344 102.003 133.061 102.508 132.686C104.409 131.273 105.694 130.848 106.528 131.358C107.222 131.781 107.745 132.613 108.678 134.771L108.835 135.135L109.445 133.991C110.134 132.7 110.995 131.582 111.62 131.166C112.202 130.778 113.138 130.785 113.933 131.182L114.528 131.48L114.45 131.151C114.277 130.42 113.25 128.542 112.543 127.665C111.956 126.937 111.131 126.153 110.657 125.873C110.639 125.862 111.046 125.228 111.564 124.463C114.214 120.544 116.298 115.801 117.503 110.948C118.289 107.784 118.602 105.685 118.86 101.841C118.93 100.808 118.986 100.543 119.135 100.543C119.39 100.543 119.452 102.509 119.259 104.436C118.704 109.965 117.082 115.564 114.645 120.369C114.176 121.293 113.672 122.243 113.525 122.481C113.377 122.719 113.256 122.96 113.256 123.016C113.256 123.154 115.104 121.874 116.195 120.98C117.71 119.74 118.337 119.125 119.636 117.604C125.583 110.64 127.091 103.176 124.254 94.7344C123.33 91.9828 121.297 88.1097 119.772 86.1925L119.564 85.9312L118.005 86.7029ZM59.339 97.212C57.2967 97.643 55.2365 99.1663 54.2986 100.939C53.4914 102.464 53.2957 103.428 53.2881 105.919C53.2743 110.433 54.4267 113.93 57.0146 117.228C58.5913 119.237 61.1573 121.418 63.6264 122.846C65.4217 123.885 65.3431 123.824 64.9058 123.835C63.5324 123.869 61.5151 124.644 60.2065 125.638C59.5435 126.142 58.1373 127.64 58.2379 127.735C58.2587 127.755 60.1615 127.416 62.4664 126.981C64.7713 126.546 66.7033 126.205 66.7599 126.223C66.8163 126.241 66.6838 126.477 66.4655 126.747C65.6357 127.775 64.7853 129.803 64.352 131.788C64.1754 132.597 64.1542 132.867 64.2696 132.838C64.6188 132.753 81.7313 124.051 81.7313 123.958C81.7313 123.903 81.4077 123.675 81.012 123.452C79.6202 122.666 77.4033 120.896 75.9735 119.429C73.252 116.638 71.2735 113.742 70.1107 110.849C69.5635 109.487 67.6205 107.425 65.4193 105.869C64.3112 105.086 61.8533 103.828 60.7726 103.492C60.0498 103.266 59.8221 103.044 60.0664 102.803C60.3594 102.514 63.5144 103.879 65.3436 105.087C66.5452 105.881 68.0714 107.135 68.717 107.86C68.9946 108.171 69.2216 108.394 69.2216 108.355C69.2216 108.315 69.1326 107.904 69.0239 107.441C68.6812 105.983 68.4761 104.064 68.4736 102.294L68.4711 100.585L67.3765 99.5081C65.6181 97.7783 63.76 97.0163 61.3405 97.0324C60.6869 97.0369 59.7862 97.1177 59.339 97.212ZM131.384 97.2089C129.857 97.5754 128.297 98.4776 127.196 99.6318C126.176 100.701 126.107 100.846 126.201 101.743C126.343 103.092 125.883 107.065 125.436 108.352C125.393 108.475 125.619 108.289 125.938 107.938C126.666 107.136 128.17 105.895 129.393 105.087C131.053 103.991 134.171 102.594 134.597 102.755C135.018 102.915 134.691 103.234 133.763 103.567C131.578 104.354 129.275 105.734 127.422 107.367C126.362 108.302 124.973 109.97 124.667 110.678C123.12 114.245 120.926 117.391 118.103 120.09C116.898 121.241 114.925 122.763 113.696 123.49C113.316 123.714 113.005 123.936 113.005 123.983C113.005 124.03 114.314 124.719 115.914 125.515C117.514 126.311 118.879 127.002 118.948 127.052C119.016 127.101 121.437 128.327 124.327 129.777C127.216 131.226 129.75 132.513 129.956 132.637C130.606 133.026 130.64 132.957 130.383 131.781C129.953 129.81 129.1 127.773 128.279 126.756C128.064 126.491 127.912 126.251 127.94 126.224C127.985 126.179 130.209 126.578 134.897 127.474C135.757 127.638 136.473 127.761 136.488 127.747C136.502 127.733 136.263 127.405 135.955 127.018C135.265 126.15 134.218 125.314 133.146 124.776C132.11 124.257 131.598 124.095 130.42 123.915L129.469 123.77L130.651 123.121C132.434 122.141 134.05 120.955 135.567 119.514C139.674 115.612 141.437 111.58 141.457 106.043C141.467 103.615 141.269 102.594 140.496 101.068C139.529 99.1593 137.533 97.6685 135.327 97.2067C134.26 96.9833 132.321 96.9844 131.384 97.2089ZM95.4294 110.913C93.3407 111.26 91.2649 111.963 89.6548 112.868C88.8858 113.3 88.7375 113.435 88.7411 113.699C88.7435 113.873 88.9613 116.788 89.2251 120.177C89.5667 124.567 89.7501 126.367 89.8623 126.435C90.0913 126.575 91.8234 126.895 93.553 127.117C95.3731 127.35 99.5144 127.391 100.996 127.19C102.216 127.024 104.874 126.55 104.874 126.497C104.874 126.435 105.739 115.287 105.819 114.322L105.896 113.394L104.878 112.796C103.591 112.04 101.999 111.403 100.627 111.097C99.2226 110.783 96.7394 110.695 95.4294 110.913Z" fill="#24E689"/>
</svg>
